# OBJ written from C:\Users\John\Dropbox\GMAP 377\Models\environment\m_bossNode_an_1.obj
# UVs by headus UVLayout v2.08.00 2012/05/02 06:40:44

o Mesh
v 0 0.046016 -0.184872
v -0.477664 0.046016 -1.79744
v -1.33428 0.046016 -1.2087
v -1.68125 0.046016 -0.228897
v -1.38604 0.046016 0.767725
v -0.561405 0.046016 1.40049
v 0.477664 0.046016 1.4277
v 1.33428 0.046016 0.838959
v 1.68125 0.046016 -0.140847
v 1.38604 0.046016 -1.13747
v 0.561405 0.046016 -1.77023
v -0.908571 0.046016 -3.25216
v -2.53795 0.046016 -2.13231
v -3.19793 0.046016 -0.268612
v -2.6364 0.046016 1.62707
v -1.06786 0.046016 2.83066
v 0.908571 0.046016 2.88241
v 2.53795 0.046016 1.76257
v 3.19793 0.046016 -0.101131
v 2.6364 0.046016 -1.99682
v 1.06786 0.046016 -3.2004
v -1.25054 0.046016 -4.40663
v -3.49319 0.046016 -2.86529
v -4.40157 0.046016 -0.300131
v -3.62869 0.046016 2.30906
v -1.46978 0.046016 3.96565
v 1.25054 0.046016 4.03688
v 3.49319 0.046016 2.49555
v 4.40157 0.046016 -0.0696126
v 3.62869 0.046016 -2.6788
v 1.46978 0.046016 -4.33539
v -1.4701 0.046016 -5.14784
v -4.1065 0.046016 -3.3359
v -5.17435 0.046016 -0.320367
v -4.26578 0.046016 2.74692
v -1.72783 0.046016 4.69436
v 1.4701 0.046016 4.7781
v 4.1065 0.046016 2.96615
v 5.17435 0.046016 -0.0493766
v 4.26578 0.046016 -3.11666
v 1.72783 0.046016 -5.0641
v -1.54575 0.046016 -5.40325
v -4.31783 0.046016 -3.49806
v -5.44064 0.046016 -0.32734
v -4.48531 0.046016 2.89779
v -1.81674 0.046016 4.94545
v 1.54575 0.046016 5.0335
v 4.31783 0.046016 3.12831
v 5.44064 0.046016 -0.0424036
v 4.48531 0.046016 -3.26754
v 1.81674 0.046016 -5.3152
v -1.4701 1.71229 -5.14784
v -4.1065 1.71229 -3.3359
v -5.17435 1.71229 -0.320367
v -4.26578 1.71229 2.74692
v -1.72783 1.71229 4.69436
v 1.4701 1.71229 4.7781
v 4.1065 1.71229 2.96615
v 5.17435 1.71229 -0.0493765
v 4.26578 1.71229 -3.11666
v 1.72783 1.71229 -5.0641
v -1.25054 3.22949 -4.40663
v -3.49319 3.22949 -2.86529
v -4.40157 3.22949 -0.300131
v -3.62869 3.22949 2.30906
v -1.46978 3.22949 3.96565
v 1.25054 3.22949 4.03688
v 3.49319 3.22949 2.49555
v 4.40157 3.22949 -0.0696126
v 3.62869 3.22949 -2.6788
v 1.46978 3.22949 -4.33539
v -0.908571 4.43354 -3.25216
v -2.53795 4.43354 -2.13231
v -3.19792 4.43354 -0.268612
v -2.6364 4.43354 1.62707
v -1.06786 4.43354 2.83066
v 0.908571 4.43354 2.88241
v 2.53795 4.43354 1.76257
v 3.19792 4.43354 -0.101131
v 2.6364 4.43354 -1.99682
v 1.06786 4.43354 -3.2004
v -0.477664 5.20659 -1.79744
v -1.33428 5.20659 -1.2087
v -1.68125 5.20659 -0.228897
v -1.38604 5.20659 0.767725
v -0.561405 5.20659 1.40049
v 0.477664 5.20659 1.4277
v 1.33428 5.20659 0.838959
v 1.68125 5.20659 -0.140847
v 1.38604 5.20659 -1.13747
v 0.561405 5.20659 -1.77023
v 1.893e-016 5.47297 -0.184872
v -1.05922 0.02085 5.33323
v 0.794462 0.02085 5.40308
v -1.02171 1.03222 5.18083
v 0.762547 1.03222 5.24805
v -0.882873 1.03222 6.06945
v -0.914527 0.02085 6.06945
v 0.649765 0.02085 6.06945
v 0.622833 1.03222 6.06945
v -0.0651993 0.046016 2.85691
v -0.0342773 0.046016 1.41429
v -0.0897391 0.046016 4.00179
v -0.105495 0.046016 4.73684
v -0.110924 0.046016 4.99012
v -0.0897391 3.22949 4.00179
v -0.105495 1.71229 4.73684
v -0.0651993 4.43354 2.85691
v -0.0342773 5.20659 1.41429
v -0.119017 1.62312 4.96613
v -0.12095 0.02085 5.11987
v -0.119017 1.62312 6.06945
v -0.12095 0.02085 6.06945
vn 0 1 0
vn 0.0147338 0.99779 0.0647909
vn -0.0016656 0.997974 0.0636073
vn 0.269991 -0.310358 0.911473
vn 0.754177 -0.310358 0.578701
vn 0.783406 -0.157858 0.601129
vn 0.280454 -0.157858 0.946798
vn 0.950294 -0.310358 0.0248843
vn 0.987123 -0.157858 0.0258486
vn 0.783431 -0.310358 -0.538437
vn 0.813793 -0.157858 -0.559304
vn 0.423435 -0.306816 -0.852389
vn 0.529831 -0.153953 -0.834013
vn -0.384721 -0.306713 -0.870584
vn -0.754177 -0.310358 -0.578701
vn -0.783406 -0.157858 -0.601129
vn -0.49725 -0.153466 -0.853926
vn -0.950294 -0.310358 -0.0248843
vn -0.987123 -0.157858 -0.0258486
vn -0.783431 -0.310358 0.538437
vn -0.813793 -0.157858 0.559304
vn -0.317323 -0.310358 0.896094
vn -0.329622 -0.157858 0.930822
vn 0.229581 -0.588715 0.775053
vn 0.6413 -0.588715 0.492086
vn 0.808063 -0.588715 0.0211599
vn 0.666175 -0.588715 -0.457849
vn 0.26983 -0.588715 -0.761975
vn -0.229581 -0.588715 -0.775053
vn -0.6413 -0.588715 -0.492086
vn -0.415807 -0.433986 -0.799225
vn -0.808063 -0.588715 -0.0211599
vn -0.666175 -0.588715 0.457849
vn -0.26983 -0.588715 0.761975
vn 0.166668 -0.809713 0.562661
vn 0.465561 -0.809713 0.357237
vn 0.586626 -0.809713 0.0153613
vn 0.483619 -0.809713 -0.332382
vn 0.195887 -0.809713 -0.553167
vn -0.166668 -0.809713 -0.562661
vn -0.465561 -0.809713 -0.357237
vn -0.586626 -0.809713 -0.0153613
vn -0.483619 -0.809713 0.332382
vn -0.195887 -0.809713 0.553167
vn 0.087563 -0.951288 0.295608
vn 0.244594 -0.951288 0.187683
vn 0.308198 -0.951288 0.00807043
vn 0.254081 -0.951288 -0.174625
vn 0.102914 -0.951288 -0.29062
vn -0.0875629 -0.951288 -0.295608
vn -0.244594 -0.951288 -0.187683
vn -0.308198 -0.951288 -0.00807043
vn -0.254081 -0.951288 0.174625
vn -0.102914 -0.951288 0.29062
vn 5.66489e-009 -1 0
vn -0.431806 -0.155781 -0.888412
vn 0.453755 -0.156415 -0.877291
vn 0.987541 -0.0309076 -0.154296
vn -0.976897 -0.0260139 -0.212123
vn 0.00980485 0.995299 0.0963572
vn 0.0235568 -0.436083 -0.899598
vn 0.0215189 -0.569403 -0.821777
vn 0.015866 -0.795383 -0.605899
vn 0.00979051 -0.927424 -0.373884
vn -0.371752 -0.894129 -0.24967
vn -0.222783 -0.90407 -0.364726
vn -0.496032 -0.657471 -0.567171
vn -0.543593 -0.820422 -0.177242
vn 0.0424496 -0.963737 -0.263457
vn 0.294875 -0.936138 -0.191558
vn 0.00947787 -0.93215 -0.361948
vn -0.00249968 0.99543 0.0954596
vn 0.022113 0.995015 0.0972406
vn -0.623035 -0.782194 0
vn 0.547688 -0.836683 0
vn 0 0 -1
# 155 texture coords
vt 0.191318 0.185168
vt 0.145694 0.148137
vt 0.176169 0.128403
vt 0.212430 0.130351
vt 0.240629 0.153240
vt 0.249999 0.188327
vt 0.236959 0.222199
vt 0.206474 0.241927
vt 0.170203 0.239980
vt 0.142003 0.217098
vt 0.132644 0.182016
vt 0.104542 0.114730
vt 0.162511 0.077194
vt 0.231479 0.080901
vt 0.285109 0.124436
vt 0.302932 0.191174
vt 0.278130 0.255617
vt 0.220136 0.293127
vt 0.151155 0.289427
vt 0.097519 0.245905
vt 0.079718 0.179174
vt 0.071886 0.088217
vt 0.151675 0.036551
vt 0.246596 0.041658
vt 0.320403 0.101573
vt 0.344938 0.193426
vt 0.310823 0.282154
vt 0.230978 0.333752
vt 0.136040 0.328665
vt 0.062216 0.268769
vt 0.037717 0.176921
vt 0.050921 0.071194
vt 0.144718 0.010454
vt 0.256304 0.016462
vt 0.343061 0.086894
vt 0.371904 0.194858
vt 0.331845 0.299215
vt 0.237940 0.359827
vt 0.126338 0.353857
vt 0.039548 0.283450
vt 0.010751 0.175472
vt 0.898180 0.271802
vt 0.646379 0.166861
vt 0.503618 0.512805
vt 0.756138 0.615949
vt 0.849400 0.301257
vt 0.659721 0.222253
vt 0.552127 0.482916
vt 0.742327 0.560666
vt 0.800435 0.330823
vt 0.673112 0.277855
vt 0.600822 0.452911
vt 0.728463 0.505174
vt 0.750662 0.360892
vt 0.686726 0.334363
vt 0.650314 0.422427
vt 0.714385 0.448758
vt 0.700409 0.391576
vt 0.473912 0.253682
vt 0.442669 0.325904
vt 0.290364 0.223876
vt 0.243393 0.205516
vt 0.327675 0.238459
vt 0.351682 0.247833
vt 0.360026 0.251088
vt 0.540901 0.325338
vt 0.484421 0.301330
vt 0.594831 0.348057
vt 0.647722 0.370089
vt 0.475681 0.297364
vt 0.364471 0.252549
vt 0.394934 0.264977
vt 0.443805 0.284642
vt 0.560144 0.281867
vt 0.608379 0.315881
vt 0.182155 0.227516
vt 0.233246 0.254782
vt 0.511678 0.252028
vt 0.654897 0.352840
vt 0.640738 0.386846
vt 0.130329 0.201894
vt 0.456836 0.219534
vt 0.480400 0.205420
vt 0.073146 0.190463
vt 0.406317 0.337661
vt 0.406238 0.239029
vt 0.440849 0.256213
vt 0.433359 0.224416
vt 0.611801 0.309519
vt 0.394558 0.319450
vt 0.422414 0.302566
vt 0.385307 0.290740
vt 0.383814 0.224921
vt 0.742112 0.278077
vt 0.723470 0.336186
vt 0.573525 0.260822
vt 0.677665 0.447079
vt 0.649910 0.501404
vt 0.361416 0.285994
vt 0.381199 0.195346
vt 0.751719 0.281963
vt 0.754024 0.217316
vt 0.543011 0.207055
vt 0.659464 0.505454
vt 0.615534 0.552893
vt 0.339158 0.305122
vt 0.821042 0.396668
vt 0.759972 0.396380
vt 0.786588 0.230744
vt 0.756709 0.155559
vt 0.520390 0.151490
vt 0.632868 0.110785
vt 0.746033 0.430170
vt 0.789515 0.473033
vt 0.648066 0.566360
vt 0.573910 0.598591
vt 0.454509 0.543059
vt 0.350869 0.081836
vt 0.819047 0.403130
vt 0.792756 0.466990
vt 0.882585 0.389666
vt 0.828634 0.185408
vt 0.751542 0.095788
vt 0.828206 0.521394
vt 0.645904 0.628155
vt 0.528115 0.637346
vt 0.240339 0.368810
vt 0.259650 0.007781
vt 0.877683 0.413203
vt 0.841511 0.501106
vt 0.942279 0.373565
vt 0.874771 0.147056
vt 0.947556 0.241981
vt 0.859172 0.574905
vt 0.770114 0.671913
vt 0.651567 0.687883
vt 0.122995 0.362538
vt 0.142322 0.001460
vt 0.935329 0.427897
vt 0.892814 0.531236
vt 0.997698 0.350583
vt 0.882254 0.630283
vt 0.031737 0.288509
vt 0.043698 0.065329
vt 0.990870 0.447634
vt 0.946173 0.556293
vt 0.001460 0.174972
vt 0.412910 0.363909
vt 0.403414 0.434904
vt 0.468172 0.353553
vt 0.458625 0.411434
vt 0.523388 0.368038
vt 0.518167 0.394802
vt 0.581557 0.379254
vt 0.579641 0.387235
mtllib m_bossNode_an_1.mtl
usemtl Default
g Default
f 2/2/1 3/3/1 1/1/1
f 3/3/1 4/4/1 1/1/1
f 4/4/1 5/5/1 1/1/1
f 5/5/1 6/6/1 1/1/1
f 7/7/1 8/8/1 1/1/1
f 8/8/1 9/9/1 1/1/1
f 9/9/1 10/10/1 1/1/1
f 10/10/1 11/11/1 1/1/1
f 11/11/1 2/2/1 1/1/1
f 12/12/1 13/13/1 3/3/1 2/2/1
f 13/13/1 14/14/1 4/4/1 3/3/1
f 14/14/1 15/15/1 5/5/1 4/4/1
f 15/15/1 16/16/1 6/6/1 5/5/1
f 17/17/1 18/18/1 8/8/1 7/7/1
f 18/18/1 19/19/1 9/9/1 8/8/1
f 19/19/1 20/20/1 10/10/1 9/9/1
f 20/20/1 21/21/1 11/11/1 10/10/1
f 21/21/1 12/12/1 2/2/1 11/11/1
f 22/22/1 23/23/1 13/13/1 12/12/1
f 23/23/1 24/24/1 14/14/1 13/13/1
f 24/24/1 25/25/1 15/15/1 14/14/1
f 25/25/1 26/26/1 16/16/1 15/15/1
f 27/27/1 28/28/1 18/18/1 17/17/1
f 28/28/1 29/29/1 19/19/1 18/18/1
f 29/29/1 30/30/1 20/20/1 19/19/1
f 30/30/1 31/31/1 21/21/1 20/20/1
f 31/31/1 22/22/1 12/12/1 21/21/1
f 32/32/1 33/33/1 23/23/1 22/22/1
f 33/33/1 34/34/1 24/24/1 23/23/1
f 34/34/1 35/35/1 25/25/1 24/24/1
f 35/35/1 36/36/1 26/26/1 25/25/1
f 37/37/1 38/38/1 28/28/1 27/27/1
f 38/38/1 39/39/1 29/29/1 28/28/1
f 39/39/1 40/40/1 30/30/1 29/29/1
f 40/40/1 41/41/1 31/31/1 30/30/1
f 41/41/1 32/32/1 22/22/1 31/31/1
f 42/144/1 43/138/1 33/33/1 32/32/1
f 43/138/1 44/128/1 34/34/1 33/33/1
f 44/128/1 45/118/1 35/35/1 34/34/1
f 45/118/1 46/100/2 36/36/1 35/35/1
f 47/106/3 48/127/1 38/38/1 37/37/1
f 48/127/1 49/137/1 39/39/1 38/38/1
f 49/137/1 50/143/1 40/40/1 39/39/1
f 50/143/1 51/147/1 41/41/1 40/40/1
f 51/147/1 42/144/1 32/32/1 41/41/1
f 52/131/4 53/42/5 43/133/6 42/141/7
f 53/42/5 54/122/8 44/132/9 43/133/6
f 54/110/8 55/43/10 45/112/11 44/123/9
f 55/43/10 56/103/12 46/111/13 45/112/11
f 57/151/14 58/44/15 48/117/16 47/149/17
f 58/44/15 59/116/18 49/126/19 48/117/16
f 59/125/18 60/45/20 50/135/21 49/136/19
f 60/45/20 61/134/22 51/142/23 50/135/21
f 61/140/22 52/139/4 42/145/7 51/146/23
f 62/121/24 63/46/25 53/42/5 52/131/4
f 63/46/25 64/109/26 54/122/8 53/42/5
f 64/102/26 65/47/27 55/43/10 54/110/8
f 65/47/27 66/96/28 56/103/12 55/43/10
f 67/153/29 68/48/30 58/44/15 57/151/31
f 68/48/30 69/105/32 59/116/18 58/44/15
f 69/115/32 70/49/33 60/45/20 59/125/18
f 70/49/33 71/124/34 61/134/22 60/45/20
f 71/130/34 62/129/24 52/139/4 61/140/22
f 72/107/35 73/50/36 63/46/25 62/121/24
f 73/50/36 74/101/37 64/109/26 63/46/25
f 74/94/37 75/51/38 65/47/27 64/102/26
f 75/51/38 76/89/39 66/96/28 65/47/27
f 77/155/40 78/52/41 68/48/30 67/153/29
f 78/52/41 79/98/42 69/105/32 68/48/30
f 79/104/42 80/53/43 70/49/33 69/115/32
f 80/53/43 81/114/44 71/124/34 70/49/33
f 81/120/44 72/119/35 62/129/24 71/130/34
f 82/108/45 83/54/46 73/50/36 72/107/35
f 83/54/46 84/95/47 74/101/37 73/50/36
f 84/95/47 85/55/48 75/51/38 74/94/37
f 85/55/48 86/79/49 76/89/39 75/51/38
f 87/80/50 88/56/51 78/52/41 77/155/40
f 88/56/51 89/97/52 79/98/42 78/52/41
f 89/97/52 90/57/53 80/53/43 79/104/42
f 90/57/53 91/113/54 81/114/44 80/53/43
f 91/113/54 82/108/45 72/119/35 81/120/44
f 82/108/45 92/58/55 83/54/46
f 83/54/46 92/58/55 84/95/47
f 84/95/47 92/58/55 85/55/48
f 85/55/48 92/58/55 86/79/49
f 87/80/50 92/58/55 88/56/51
f 88/56/51 92/58/55 89/97/52
f 89/97/52 92/58/55 90/57/53
f 90/57/53 92/58/55 91/113/54
f 91/113/54 92/58/55 82/108/45
f 47/148/17 94/85/56 96/60/56 57/150/14
f 56/78/12 95/59/57 93/82/57 46/83/13
f 97/87/58 98/88/58 93/82/58 95/59/58
f 99/90/59 100/91/59 96/60/59 94/85/59
f 102/62/1 101/61/1 17/17/1 7/7/1
f 101/61/1 102/62/1 6/6/1 16/16/1
f 101/61/1 103/63/1 27/27/1 17/17/1
f 103/63/1 101/61/1 16/16/1 26/26/1
f 103/63/1 104/64/1 37/37/1 27/27/1
f 104/64/1 103/63/1 26/26/1 36/36/1
f 104/64/1 105/65/60 47/106/3 37/37/1
f 105/65/60 104/64/1 36/36/1 46/100/2
f 107/67/61 106/66/62 67/152/29 57/150/14
f 106/66/62 107/67/61 56/78/12 66/74/28
f 106/66/62 108/68/63 77/154/40 67/152/29
f 108/68/63 106/66/62 66/74/28 76/75/39
f 108/68/63 109/69/64 87/80/50 77/154/40
f 109/69/64 108/68/63 76/75/39 86/79/49
f 110/70/65 107/67/66 57/150/67 96/60/68
f 107/67/66 110/70/69 95/59/70 56/78/71
f 105/65/60 111/71/60 94/99/72 47/106/3
f 111/71/60 105/65/60 46/100/2 93/93/73
f 112/73/74 110/70/68 96/60/68 100/91/74
f 110/70/70 112/73/75 97/87/75 95/59/70
f 111/71/60 113/72/1 99/92/1 94/99/72
f 113/72/1 111/71/60 93/93/73 98/86/1
f 113/72/76 112/73/76 100/91/76 99/92/76
f 112/73/76 113/72/76 98/86/76 97/87/76
f 6/6/1 102/62/1 7/7/1 1/1/1
f 86/79/49 92/58/55 87/80/50 109/69/64
