# OBJ written from C:\Users\John\Dropbox\GMAP 377\Models\candyDrops\m_chocoCD_an_4.obj
# UVs by headus UVLayout v2.08.00 2012/05/02 06:40:44

o Mesh
v -0.28875 0.005 -0.17325
v -0.28875 0.005 0
v -0.28875 0.005 0.17325
v -0.28875 0.063875 0.17325
v -0.25 0.11 0.15
v -0.25 0.11 0
v -0.25 0.11 -0.15
v -0.28875 0.063875 -0.17325
v -0.28875 0.063875 0
v 0 0.005 -0.17325
v 0 0.005 0
v 0 0.005 0.17325
v 0 0.063875 0.17325
v 0 0.11 0.15
v 0 0.052 0
v 0 0.11 -0.15
v 0 0.063875 -0.17325
v 0.28875 0.005 -0.17325
v 0.28875 0.005 0
v 0.28875 0.005 0.17325
v 0.28875 0.063875 0.17325
v 0.25 0.11 0.15
v 0.25 0.11 0
v 0.25 0.11 -0.15
v 0.28875 0.063875 -0.17325
v 0.28875 0.063875 0
v -0.217912 0.111675 0.120413
v -0.217912 0.111675 0
v -0.217912 0.111675 -0.120413
v 0 0.111675 0.120413
v 0 0.111675 -0.120413
v 0.217912 0.111675 0.120413
v 0.217912 0.111675 0
v 0.217912 0.111675 -0.120413
v 0 0.165325 0.0981362
v 0 0.165325 0
v -0.177599 0.165325 0
v -0.177599 0.165325 0.0981362
v 0 0.165325 -0.0981362
v -0.177599 0.165325 -0.0981362
v 0.177599 0.165325 0.0981362
v 0.177599 0.165325 0
v 0.177599 0.165325 -0.0981362
vn -1 0 0
vn -0.765664 0.643241 0
vn 0 -1 0
vn 0 0 1
vn 0 0.231333 0.972875
vn 0 0.450115 0.892971
vn 0 0.450115 -0.892971
vn 0 0.231333 -0.972875
vn 0 0 -1
vn 1 0 0
vn 0.765664 0.643241 0
vn -0.0260843 0.99926 0.0282816
vn 0 0.998401 0.0565213
vn 0.0260843 0.99926 0.0282816
vn 0.0521301 0.99864 0
vn 0.0260843 0.99926 -0.0282816
vn 0 0.998401 -0.0565213
vn -0.0260843 0.99926 -0.0282816
vn -0.0521301 0.99864 0
vn 0 0.383473 0.923552
vn -0.799454 0.600727 0
vn 0 0.383473 -0.923552
vn 0.799454 0.600727 0
vn 0 1 0
# 79 texture coords
vt 0.130629 0.679093
vt 0.067556 0.679132
vt 0.420388 0.187240
vt 0.420427 0.368637
vt 0.420442 0.430271
vt 0.420454 0.484353
vt 0.420532 0.873542
vt 0.420543 0.927609
vt 0.710346 0.678971
vt 0.773420 0.678984
vt 0.164272 0.679075
vt 0.420459 0.515389
vt 0.420526 0.842526
vt 0.676703 0.678967
vt 0.420470 0.576210
vt 0.420489 0.678955
vt 0.234535 0.679047
vt 0.420513 0.781707
vt 0.606441 0.678970
vt 0.071886 0.471627
vt 0.234570 0.781800
vt 0.533256 0.471715
vt 0.606456 0.781723
vt 0.046236 0.491478
vt 0.234504 0.576290
vt 0.072165 0.212659
vt 0.533067 0.212746
vt 0.606435 0.576211
vt 0.558899 0.491575
vt 0.003510 0.517956
vt 0.045560 0.188580
vt 0.559678 0.188676
vt 0.601617 0.518066
vt 0.420560 0.989244
vt -0.026593 0.547225
vt 0.005916 0.679175
vt 0.004699 0.155935
vt 0.600548 0.156045
vt 0.631710 0.547345
vt 0.835063 0.679002
vt -0.014551 0.117382
vt 0.619811 0.117495
vt 0.118055 0.187347
vt 0.722721 0.187187
vt 0.117987 0.005959
vt 0.420332 0.005838
vt 0.722677 0.005780
vt 0.005780 0.497778
vt 0.118096 0.368742
vt 0.835032 0.860398
vt 0.722868 0.989344
vt 0.067435 0.497731
vt 0.118108 0.430398
vt 0.130542 0.522038
vt 0.158696 0.484466
vt 0.164215 0.552997
vt 0.192294 0.515474
vt 0.118251 0.989501
vt 0.006027 0.860572
vt 0.118210 0.927839
vt 0.067668 0.860532
vt 0.835131 0.497607
vt 0.722758 0.368599
vt 0.773477 0.497584
vt 0.722775 0.430258
vt 0.710378 0.521915
vt 0.682212 0.484347
vt 0.676715 0.552890
vt 0.648625 0.515377
vt 0.773394 0.860383
vt 0.722876 0.927700
vt 0.710337 0.836028
vt 0.682296 0.873599
vt 0.676710 0.805045
vt 0.648685 0.842554
vt 0.158768 0.873707
vt 0.130716 0.836149
vt 0.192366 0.842648
vt 0.164330 0.805154
mtllib m_chocoCD_an_4.mtl
usemtl Default
g Default
f 1/59/1 2/36/1 9/2/1 8/61/1
f 8/61/2 9/2/2 6/1/2 7/77/2
f 2/36/1 3/48/1 4/52/1 9/2/1
f 9/2/2 4/52/2 5/54/2 6/1/2
f 10/46/3 11/3/3 2/43/3 1/45/3
f 11/3/3 12/4/3 3/49/3 2/43/3
f 12/4/4 13/5/5 4/53/5 3/49/4
f 13/5/5 14/6/6 5/55/6 4/53/5
f 16/7/7 17/8/8 8/60/8 7/76/7
f 17/8/8 10/34/9 1/58/9 8/60/8
f 18/47/3 19/44/3 11/3/3 10/46/3
f 19/44/3 20/63/3 12/4/3 11/3/3
f 20/63/4 21/65/5 13/5/5 12/4/4
f 21/65/5 22/67/6 14/6/6 13/5/5
f 24/73/7 25/71/8 17/8/8 16/7/7
f 25/71/8 18/51/9 10/34/9 17/8/8
f 18/50/10 25/70/10 26/10/10 19/40/10
f 25/70/11 24/72/11 23/9/11 26/10/11
f 19/40/10 26/10/10 21/64/10 20/62/10
f 26/10/11 23/9/11 22/66/11 21/64/11
f 5/55/12 14/6/13 30/12/13 27/57/12
f 14/6/13 22/67/14 32/69/14 30/12/13
f 22/66/14 23/9/15 33/14/15 32/68/14
f 23/9/15 24/72/16 34/74/16 33/14/15
f 24/73/16 16/7/17 31/13/17 34/75/16
f 16/7/17 7/76/18 29/78/18 31/13/17
f 7/77/18 6/1/19 28/11/19 29/79/18
f 6/1/19 5/54/12 27/56/12 28/11/19
f 38/25/20 27/57/20 30/12/20 35/15/20
f 37/17/21 28/11/21 27/56/21 38/25/21
f 39/18/22 31/13/22 29/78/22 40/21/22
f 40/21/21 29/79/21 28/11/21 37/17/21
f 35/15/20 30/12/20 32/69/20 41/28/20
f 41/28/23 32/68/23 33/14/23 42/19/23
f 42/19/23 33/14/23 34/74/23 43/23/23
f 43/23/22 34/75/22 31/13/22 39/18/22
f 35/15/24 36/16/24 37/17/24 38/25/24
f 36/16/24 39/18/24 40/21/24 37/17/24
f 41/28/24 42/19/24 36/16/24 35/15/24
f 42/19/24 43/23/24 39/18/24 36/16/24
